<svg xmlns="http://www.w3.org/2000/svg" xmlns:xlink="http://www.w3.org/1999/xlink" width="256" height="256" viewBox="0 0 256 256">
    <defs>
        <style>.a{fill:#fff;}.b{clip-path:url(#a);}.c{fill:#f4b318;}</style>
        <clipPath id="a"><rect class="a" width="256" height="256" transform="translate(-5943 -1291)"/>
        </clipPath></defs><g class="b" transform="translate(5943 1291)">
    <path class="c" d="M207.838,255.8H15.988a15.576,15.576,0,0,1-11.241-4.619A15.24,15.24,0,0,1,0,239.813V127.9a15.255,15.255,0,0,1,4.747-11.369,15.538,15.538,0,0,1,11.241-4.619H31.975V79.938a77.982,77.982,0,0,1,10.744-40.1,79.942,79.942,0,0,1,29.1-29.1A78.049,78.049,0,0,1,111.913,0a77.866,77.866,0,0,1,40.1,10.744,80.086,80.086,0,0,1,29.1,29.1,77.932,77.932,0,0,1,10.744,40.1v31.975h15.988A15.774,15.774,0,0,1,223.825,127.9V239.813A15.774,15.774,0,0,1,207.838,255.8Zm-127.9-15.988h63.95L123.651,189.6a33.059,33.059,0,0,0,14.616-11.738A31.926,31.926,0,0,0,111.913,127.9a31.882,31.882,0,0,0-26.355,49.959A33.059,33.059,0,0,0,100.174,189.6ZM159.875,79.938a46.237,46.237,0,0,0-13.991-33.972,46.147,46.147,0,0,0-33.851-13.991A46.474,46.474,0,0,0,78.062,45.966,46.068,46.068,0,0,0,63.95,79.938v31.975h95.925Z" transform="translate(-5926.913 -1290.9)"/>
</g>
</svg>