<svg xmlns="http://www.w3.org/2000/svg" xmlns:xlink="http://www.w3.org/1999/xlink" width="256" height="256" viewBox="0 0 256 256"><defs><style>.a{fill:#fff;}.b{clip-path:url(#a);}.c{fill:#2a2a2a;}.d{fill:#f79e1b;}.e{fill:#eb001b;}.f{fill:#ff5f00;}.g{fill:#fefefe;}.h{fill:#010202;}</style><clipPath id="a"><rect class="a" width="256" height="256" transform="translate(-4944 -1486)"/></clipPath></defs><g class="b" transform="translate(4944 1486)"><g transform="translate(-3950.9 -1043.781)"><path d="M-993-233.576V-395.11h255.79v161.534a2.146,2.146,0,0,1-1.07.091q-126.825.007-253.651,0A2.145,2.145,0,0,1-993-233.576Z"/><path class="c" d="M-993,1235.381h255.79c-.043.061.1.206-.1.2-.264-.009-.528,0-.792,0q-127,0-254.007-.012C-992.4,1235.567-992.78,1235.8-993,1235.381Z" transform="translate(0 -1468.957)"/><path class="d" d="M300.1-260a45.73,45.73,0,0,1,7.742-5.123,54.04,54.04,0,0,1,19.506-6.154,54.7,54.7,0,0,1,59.732,41.754,54.786,54.786,0,0,1,1.115,18.471,54.721,54.721,0,0,1-39.99,46.815,53.877,53.877,0,0,1-17.251,1.839,54.005,54.005,0,0,1-30.835-11.535.474.474,0,0,1-.015-.306,7.386,7.386,0,0,1,1.978-1.908,54.419,54.419,0,0,0,15.029-21.639,50.805,50.805,0,0,0,3.355-15,54.569,54.569,0,0,0-4.642-26.615,55.431,55.431,0,0,0-8.575-13.354,52.1,52.1,0,0,0-6.531-6.314C300.419-259.312,300.031-259.51,300.1-260Z" transform="translate(-1164.978 -111.22)"/><path class="e" d="M-505.933-173.778s0,.1,0,.1a3.219,3.219,0,0,0-1.075.687,54.561,54.561,0,0,1-24.168,10.262,51.854,51.854,0,0,1-11.84.587,53.849,53.849,0,0,1-34.777-15.23,53.65,53.65,0,0,1-15.9-29.659,49.9,49.9,0,0,1-.687-14.081q2.886-28.621,27.729-43.263a50.166,50.166,0,0,1,19.575-6.546,54.2,54.2,0,0,1,40.986,11.171c-.308,1-1.265,1.4-1.96,2.015a55.443,55.443,0,0,0-11.72,14.457,53.918,53.918,0,0,0-6.381,19.026,55.08,55.08,0,0,0-.32,11.731,52.511,52.511,0,0,0,4.178,17.119,55.108,55.108,0,0,0,9.477,14.869,66.208,66.208,0,0,0,6.291,6C-506.28-174.32-505.991-174.141-505.933-173.778Z" transform="translate(-358.924 -111.469)"/><path class="f" d="M109.677-68.205a55.162,55.162,0,0,1-6.734-6.222,55.467,55.467,0,0,1-7.077-9.718,53.3,53.3,0,0,1-4.985-11.68,54.928,54.928,0,0,1-1.7-7.879,55.884,55.884,0,0,1-.479-7.376,54.026,54.026,0,0,1,4.283-21.4,53.882,53.882,0,0,1,7.988-13.229,65.922,65.922,0,0,1,5.7-6.025c.9-.862,1.893-1.634,2.843-2.446a.122.122,0,0,1,.136,0,7.759,7.759,0,0,0,1.612,1.441,55.131,55.131,0,0,1,6.188,6.2,54.962,54.962,0,0,1,6.538,9.6,54.4,54.4,0,0,1,4.569,11.518,56.462,56.462,0,0,1,1.516,7.8,21.115,21.115,0,0,1,.263,3.038c-.024,1.846-.031,3.693.006,5.539a38.405,38.405,0,0,1-.658,6.946,51.14,51.14,0,0,1-2.236,8.759,55.854,55.854,0,0,1-7.49,14.274,61.367,61.367,0,0,1-7.413,8.309C111.624-69.869,110.536-69.166,109.677-68.205Z" transform="translate(-974.534 -217.042)"/><path class="a" d="M-489.523,961.009a5.672,5.672,0,0,1,3.229-2.313,7.186,7.186,0,0,1,4.1.146,5.06,5.06,0,0,1,3.379,4.887c.066,3.033.019,6.069.036,9.1,0,.411-.107.6-.555.581a14.061,14.061,0,0,0-1.782,0c-.554.043-.653-.2-.65-.69.018-2.408.011-4.816.006-7.224a7.554,7.554,0,0,0-.122-1.673,2.962,2.962,0,0,0-2.8-2.616,3.547,3.547,0,0,0-3.678,1.961,4.668,4.668,0,0,0-.367,2.024q.009,3.661,0,7.323c0,.874-.007.876-.836.883-.528,0-1.058-.023-1.584.008-.444.026-.56-.161-.557-.573.014-1.946.018-3.892,0-5.839a17.254,17.254,0,0,0-.1-2.961,3.044,3.044,0,0,0-3.313-2.837,3.382,3.382,0,0,0-3.473,3.013,8.3,8.3,0,0,0-.042,1.086c0,2.441,0,4.882,0,7.323,0,.764-.011.769-.741.778-.594.007-1.189-.01-1.783.005-.334.009-.489-.118-.473-.456.009-.2,0-.4,0-.594q0-6.235,0-12.469c0-.2.007-.4,0-.594-.012-.325.12-.48.464-.473q.99.02,1.981,0c.327-.007.485.107.493.448a2.639,2.639,0,0,0,.113,1.1,5.289,5.289,0,0,1,4.656-1.881A5.4,5.4,0,0,1-489.523,961.009Z" transform="translate(-442.685 -1219.478)"/><path class="a" d="M968.549,922.3a1.249,1.249,0,0,0-.274.1,6.941,6.941,0,0,1-11.388-3.8,8.431,8.431,0,0,1,.765-6.134,7.046,7.046,0,0,1,8.324-3.279,5.819,5.819,0,0,1,2.387,1.528c.327-.132.176-.4.178-.6.012-1.912,0-3.824.009-5.736,0-1.1-.139-.968,1.021-.979.495,0,.99.012,1.485,0,.346-.01.475.14.449.473-.015.2,0,.4,0,.593v18.2a4.7,4.7,0,0,0,0,.494c.048.446-.085.676-.593.643a13.3,13.3,0,0,0-1.781,0c-.516.036-.628-.2-.589-.642C968.568,922.908,968.549,922.643,968.549,922.3Z" transform="translate(-1756.481 -1169.873)"/><path class="a" d="M672.3,960.5c.036-1.534.036-1.534,1.5-1.534s1.47,0,1.47,1.446q0,5.981,0,11.962c0,.231-.009.462,0,.692.014.325-.109.5-.456.479-.263-.012-.528.009-.791,0-.524-.024-1.133.189-1.548-.087-.4-.266-.018-.912-.214-1.341a.208.208,0,0,0-.274.075c-2.309,2.571-7.863,2.459-10.366-1.546a8.412,8.412,0,0,1,1.032-10.054c2.545-2.547,7.168-2.606,9.315-.283A1.717,1.717,0,0,0,672.3,960.5Z" transform="translate(-1489.61 -1219.612)"/><path class="a" d="M-229.323,971.763c-3.2,3.441-10.228,2.286-11.582-3.806a8.351,8.351,0,0,1,.779-5.946,7.052,7.052,0,0,1,8.4-3.289,4.741,4.741,0,0,1,1.322.661c.36.269.7.562,1.05.842.2-.183.128-.387.128-.567,0-1.012-.065-.928.994-.929.5,0,.991.011,1.485,0,.327-.009.5.106.48.453-.008.131,0,.264,0,.4q0,6.431,0,12.862c0,.91.051.878-.846.871-.165,0-.33.006-.5,0-.491-.023-1.069.179-1.451-.087C-229.471,972.93-229.077,972.3-229.323,971.763Z" transform="translate(-677.379 -1219.377)"/><path class="a" d="M237.286,967.291a4.11,4.11,0,0,0,4.036,3.752,6.73,6.73,0,0,0,4.026-1.122c.566-.357.573-.35.98.2.177.238.346.481.52.722.673.937.686.958-.338,1.572a8.972,8.972,0,0,1-7.609.931,6.693,6.693,0,0,1-4.708-5.809,9.053,9.053,0,0,1,.411-4.581,6.891,6.891,0,0,1,6.976-4.486c3.874.209,5.959,2.93,6.431,6.1a11.433,11.433,0,0,1,.109,2.07c-.016.484-.16.679-.693.665-1.483-.04-2.969-.014-4.453-.014Z" transform="translate(-1105.504 -1219.468)"/><path class="a" d="M-56.466,969.779a8.079,8.079,0,0,0,5.583,1.479,4.273,4.273,0,0,0,1.8-.487,1.432,1.432,0,0,0,.869-1.331c-.018-.62-.443-.921-.93-1.165a7.281,7.281,0,0,0-2.388-.578,13.183,13.183,0,0,1-2.892-.613,3.785,3.785,0,0,1-2.826-3.641,4.115,4.115,0,0,1,2.526-4.106,7.387,7.387,0,0,1,2.972-.641,11.685,11.685,0,0,1,5.485,1c.937.445.936.451.436,1.316q-.4.684-.8,1.364a.96.96,0,0,1-.172.159,10.494,10.494,0,0,0-3.234-1.093,5.565,5.565,0,0,0-2.546.078,3.483,3.483,0,0,0-.728.3,1.466,1.466,0,0,0-.846,1.351c.028.613.483.913.982,1.126a12.83,12.83,0,0,0,3.093.609,10.989,10.989,0,0,1,2.477.651,4.077,4.077,0,0,1,.945,6.971,6.168,6.168,0,0,1-2.486,1.153,11.319,11.319,0,0,1-7.953-1.056c-.913-.486-.9-.507-.358-1.34C-57.153,970.819-56.844,970.354-56.466,969.779Z" transform="translate(-842.518 -1219.677)"/><path class="a" d="M103.29,933.271c.286.787.54,1.5.8,2.2a.445.445,0,0,1-.274.631,7.266,7.266,0,0,1-6.208.381,3.8,3.8,0,0,1-2.2-3.292,19,19,0,0,1-.11-2.863q0-2.374,0-4.748c0-.928.049-.828-.871-.832-.561,0-1.122-.016-1.683,0-.38.014-.542-.126-.518-.512.043-.688-.265-1.534.118-2.022s1.24-.138,1.887-.162c1.2-.045,1.056.135,1.065-1.047.007-.89-.006-1.78,0-2.671.008-.672.018-.676.726-.685.561-.007,1.123.021,1.683-.008.428-.022.579.134.571.561-.021,1.022-.011,2.044,0,3.066.005.767.012.772.834.775,1.254,0,2.508.021,3.762-.008.492-.011.744.1.691.646-.063.65.267,1.48-.129,1.912s-1.247.122-1.9.144c-.89.03-1.782.019-2.672,0-.385-.007-.6.048-.6.525.023,2.176-.029,4.353.027,6.528.044,1.715,1.039,2.487,2.747,2.243A7.212,7.212,0,0,0,103.29,933.271Z" transform="translate(-977.651 -1182.701)"/><path class="a" d="M525.613,960.188c-.431.651-.844,1.282-1.264,1.908a2.832,2.832,0,0,1-.244.281c-3.378-1.677-5.591-1.555-7.2.385a5.5,5.5,0,0,0-.049,6.535,4.323,4.323,0,0,0,3.531,1.68,6.869,6.869,0,0,0,3.719-1.286c.437.642.825,1.251,1.255,1.829.262.352.179.546-.155.78a8.268,8.268,0,0,1-6.321,1.277,6.759,6.759,0,0,1-5.63-4.528,8.409,8.409,0,0,1,.042-6.087,7.254,7.254,0,0,1,7.385-4.552,7.832,7.832,0,0,1,4.46,1.38C525.3,959.905,525.441,960.042,525.613,960.188Z" transform="translate(-1356.535 -1219.418)"/><path class="g" d="M856.816,960.25a5.459,5.459,0,0,1,3.657-1.729,1.647,1.647,0,0,1,.2-.02,6.107,6.107,0,0,1,2.219.388c.089.689-.362,1.228-.512,1.851-.023.1-.057.189-.083.285-.118.437-.3.675-.831.466a3.638,3.638,0,0,0-1.166-.169,3,3,0,0,0-3.3,2.6,8.272,8.272,0,0,0-.155,1.668q.018,3.359,0,6.717c0,1.337.127,1.108-1.176,1.128-.428.007-.857-.012-1.285,0-.338.013-.481-.133-.471-.461.006-.2,0-.4,0-.593q0-6.223,0-12.447c0-.23,0-.461,0-.691,0-.292.16-.4.441-.392.659.009,1.319.019,1.977,0,.41-.015.511.179.49.537C856.8,959.675,856.816,959.963,856.816,960.25Z" transform="translate(-1663.934 -1219.507)"/><path class="a" d="M413.432,960.3c1.786-1.838,3.831-2,6.124-1.333a16.018,16.018,0,0,1-.777,2.442c-.092.291-.29.318-.542.222a4.462,4.462,0,0,0-1.755-.214,2.846,2.846,0,0,0-2.7,1.961,5.577,5.577,0,0,0-.312,2.137q.005,3.608,0,7.216c0,.79-.012.792-.823.8-.495,0-.993-.039-1.483.011-.565.058-.647-.207-.646-.685q.019-6.623,0-13.246c0-.513.145-.712.673-.666.491.043.989,0,1.483.01.733.009.735.012.76.765C413.438,959.91,413.432,960.1,413.432,960.3Z" transform="translate(-1264.468 -1219.601)"/><path d="M992.244,995.886a4.329,4.329,0,0,1-4.3-3.258,5.671,5.671,0,0,1,.049-3.49,4.393,4.393,0,0,1,8.506.447,5.9,5.9,0,0,1-.388,3.853A4.211,4.211,0,0,1,992.244,995.886Z" transform="translate(-1784.463 -1244.323)"/><path d="M700.226,990.856a7.383,7.383,0,0,1-.188,1.637,4.291,4.291,0,0,1-4.214,3.358,4.365,4.365,0,0,1-4.3-3.266,5.771,5.771,0,0,1,0-3.307,4.405,4.405,0,0,1,8.638.67C700.2,990.272,700.207,990.6,700.226,990.856Z" transform="translate(-1517.415 -1244.286)"/><path d="M-205.533,995.933a4.311,4.311,0,0,1-4.194-3.138,5.71,5.71,0,0,1,.145-3.957,4.282,4.282,0,0,1,4.176-2.74,4.218,4.218,0,0,1,4.018,2.948,5.7,5.7,0,0,1-.2,4.415A4.187,4.187,0,0,1-205.533,995.933Z" transform="translate(-705.417 -1244.37)"/><path class="h" d="M274.723,989.684h-7.181a.692.692,0,0,1-.469-.086,3.666,3.666,0,0,1,3.593-3.579C272.878,985.874,274.4,987.206,274.723,989.684Z" transform="translate(-1135.237 -1244.29)"/></g></g></svg>