<svg xmlns="http://www.w3.org/2000/svg" width="258.8" height="142.03" viewBox="0 0 258.8 142.03">
  <g id="American_Express" data-name="American Express" transform="translate(2343.044 -414.976)">
    <rect id="Rectangle_997" data-name="Rectangle 997" width="258.118" height="103.461" transform="translate(-2343.044 440.105)" fill="#fff"/>
    <path id="Path_235" data-name="Path 235" d="M-2085.091,534.369a4.2,4.2,0,0,1,.157,1.919c.009,25.558.008-6.973.006,18.585,0,2.269.217,2.128-2.042,2.128H-2341c-.323,0-.646-.02-.968,0-.724.045-1.091-.253-1.058-1.007.02-.451,0-.9,0-1.355,0-42.21,0-26.33,0-68.54,0-2.817-.238-2.438,2.5-2.455,2.711-.017,5.422-.047,8.132.018a1.633,1.633,0,0,0,1.828-1.267c.488-1.4,1.109-2.751,1.611-4.146a1.284,1.284,0,0,1,1.446-.953c1.548.045,3.1.08,4.645-.011.983-.058,1.364.411,1.659,1.219.465,1.271,1.054,2.5,1.49,3.778.335.982.819,1.57,1.946,1.368a5.551,5.551,0,0,1,.967-.008q46.276,0,92.552,0c2.677,0,2.4.292,2.417-2.341.007-1.093,0-2.186,0-3.257.721-.212.84.366,1.1.66.8.925,1.546,1.9,2.335,2.842,2.13,2.536,1.018,2.076,4.493,2.09,7.229.03,14.457.013,21.686.006,1.7,0,1.7-.017,1.732-1.67.012-.644.027-1.288.063-1.931.005-.1.132-.186.3-.408.5.349,1,.717,1.522,1.06a16.517,16.517,0,0,0,9.264,2.943c5.357,0,10.714-.032,16.07.038a1.835,1.835,0,0,0,2.086-1.459c.415-1.286,1.033-2.505,1.464-3.787a1.483,1.483,0,0,1,1.718-1.132c1.481.062,2.972.079,4.451-.006a1.465,1.465,0,0,1,1.666,1.207c.444,1.277,1.061,2.5,1.486,3.778a1.73,1.73,0,0,0,1.938,1.4c7.616-.054,15.232-.022,22.848-.034,1.389,0,1.41-.037,1.427-1.382a27.015,27.015,0,0,1,.359-5.092c1.062,1.644,2.193,3.247,3.161,4.944a2.723,2.723,0,0,0,2.753,1.571c4.774-.091,9.552-.028,14.328-.041,1.5,0,1.535-.03,1.536-1.453q.013-18.782,0-37.563c0-1.392-.033-1.43-1.363-1.435-4.969-.017-9.939.019-14.909-.027-1.049-.01-1.328.393-1.3,1.357.052,1.666.014,3.336.014,5.075-.677.068-.791-.456-1.011-.776-1.022-1.489-2.052-2.975-3.008-4.507a2.1,2.1,0,0,0-2.014-1.151c-4.9.047-9.81.013-14.715.027-1.472,0-1.493.033-1.5,1.5-.016,2.775-.006,5.551-.006,8.326a3.029,3.029,0,0,1-.35,1.684c-.367-.789-.749-1.571-1.1-2.369-1.058-2.423-2.183-4.821-3.118-7.29a2.4,2.4,0,0,0-2.669-1.812c-7.164.065-14.328,0-21.492-.014-2.259-.005-4.518,0-6.777-.023a20.359,20.359,0,0,0-12.012,3.674,1.192,1.192,0,0,1-.992.384,11.8,11.8,0,0,1-.106-2.953c0-.837-.326-1.182-1.151-1.112-.385.033-.774,0-1.161,0h-88.873a6.973,6.973,0,0,1-.967-.006c-1.031-.146-1.47.377-1.77,1.3-.784,2.421-1.654,4.815-2.554,7.405a7.409,7.409,0,0,1-1.2-2.611c-.638-1.688-1.232-3.393-1.813-5.1a1.256,1.256,0,0,0-1.406-1c-1.094.053-2.194.012-3.291.012-4.97,0-9.939-.007-14.909,0-1.555,0-1.572.027-1.577,1.606-.012,3.349,0,6.7,0,10.185-.633-.313-.7-.85-.894-1.282-1.351-3.069-2.74-6.122-4-9.227a1.8,1.8,0,0,0-2.01-1.31q-6.97.084-13.94,0a1.834,1.834,0,0,0-2,1.34c-2.652,6.3-5.369,12.571-8.066,18.852-.193.449-.391.9-.67,1.532a3.937,3.937,0,0,1-.287-2.106c-.008-34.53-.007-10.969-.007-45.5,0-.065,0-.129,0-.194.016-2.341-.15-2.087,2.071-2.087q127.017-.005,254.035,0c.323,0,.647.024.968,0,.729-.059,1.081.231,1.031.99-.03.45,0,.9,0,1.355,0,44.921,0,31.752,0,76.672,0,.065,0,.129,0,.194-.011,2.36.138,2.083-2.071,2.083q-75.417.006-150.833,0a13.884,13.884,0,0,1-1.548-.01,2.143,2.143,0,0,0-2.122,1c-1.228,1.645-2.538,3.229-3.914,4.963-1.3-1.683-2.52-3.173-3.636-4.735a2.614,2.614,0,0,0-2.389-1.247c-13.3.042-26.591.025-39.886.031-1.6,0-1.62.022-1.62,1.556q-.01,18.685,0,37.37c0,1.534.028,1.56,1.641,1.56,13.231.007,26.462-.007,39.693.027a2.47,2.47,0,0,0,2.233-1.182c1.158-1.615,2.4-3.17,3.744-4.931,1.312,1.738,2.55,3.279,3.671,4.9a2.579,2.579,0,0,0,2.409,1.213c7.487-.044,14.974-.019,22.46-.025,1.828,0,1.839-.015,1.849-1.773.012-2.13.028-4.26-.007-6.39-.015-.888.262-1.356,1.219-1.237a6.027,6.027,0,0,0,.774,0c3.664-.022,7.363.292,10.8-1.273a3.358,3.358,0,0,1,.287,2.026c.021,2.452.028,4.905,0,7.357-.009.85.2,1.309,1.183,1.3q7.357-.051,14.715-.007c.833,0,1.148-.308,1.126-1.138-.04-1.527-.011-3.055-.011-5.036a12.937,12.937,0,0,1,2.589,3c1.544,2.646,3.716,3.258,6.729,3.243,26.526-.13,53.052-.1,79.579-.049,3.753.007,7.328-.427,10.619-2.345A1.611,1.611,0,0,1-2085.091,534.369Z" fill="#016fd0"/>
    <path id="Path_236" data-name="Path 236" d="M-2133.174,605.445c.72-2.034,1.407-3.966,2.087-5.9,1.388-3.953,2.811-7.9,4.132-11.871a1.684,1.684,0,0,1,1.908-1.41c3.1.071,6.195.054,9.292.009,1.012-.015,1.318.347,1.314,1.347q-.047,13.842,0,27.684c0,1-.307,1.371-1.323,1.328-1.61-.066-3.226,0-4.839-.022-1.448-.017-1.474-.034-1.477-1.529-.011-5.808,0-11.616-.013-17.424a5.042,5.042,0,0,0-.177-2.162,2.615,2.615,0,0,0-.708,1.34q-3.248,9-6.492,18.01c-.757,2.1-.411,1.726-2.572,1.766-1.1.02-2.2-.074-3.289.025-1.106.1-1.571-.347-1.929-1.368-2.046-5.84-4.166-11.654-6.267-17.475-.273-.757-.579-1.5-.993-2.572a5.229,5.229,0,0,0-.262,2.208q-.012,8.518,0,17.036c0,2.493.043,2.125-2.236,2.147-1.419.014-2.841-.033-4.259.015-.846.029-1.191-.3-1.113-1.127.018-.192,0-.387,0-.581q0-13.455,0-26.91c0-1.7.018-1.718,1.669-1.716,2.968,0,5.938.09,8.9.009a1.824,1.824,0,0,1,2.063,1.493c1.82,5.236,3.707,10.449,5.594,15.662A4.025,4.025,0,0,0-2133.174,605.445Z" transform="translate(-153.724 -138.119)" fill="#016fd0"/>
    <path id="Path_237" data-name="Path 237" d="M-1270.434,597.553v12.073c0,1.87-.037,3.741.015,5.61.027.954-.217,1.416-1.28,1.372-1.674-.07-3.353,0-5.029-.025-1.307-.02-1.325-.045-1.337-1.463-.017-2,0-4,0-6q0-10.543,0-21.087c0-1.756.016-1.764,1.824-1.772,2.128-.009,4.259.064,6.383-.029a2.338,2.338,0,0,1,2.321,1.3c3.46,5.439,6.977,10.84,10.478,16.252.2.313.438.6.767,1.053a2.882,2.882,0,0,0,.216-1.592c.01-5.159,0-10.318.011-15.477,0-1.467.029-1.486,1.489-1.5,1.676-.02,3.354.015,5.03-.009.74-.01,1.059.3,1.025,1.032-.018.386,0,.774,0,1.16q0,12.962,0,25.924c0,.322-.023.646,0,.967.068.873-.231,1.285-1.2,1.264-2.385-.052-4.773-.068-7.157.007-1,.031-1.325-.6-1.742-1.247q-5.136-7.963-10.283-15.919A5.59,5.59,0,0,0-1270.434,597.553Z" transform="translate(-858.758 -138.095)" fill="#016fd0"/>
    <path id="Path_238" data-name="Path 238" d="M-1929.833,601.43c0-4.514-.009-9.029.006-13.543.005-1.471.034-1.5,1.517-1.506q10.931-.018,21.862,0c1.33,0,1.345.04,1.366,1.425.02,1.354-.056,2.712.022,4.062.062,1.068-.409,1.281-1.36,1.272q-6.094-.057-12.189,0c-1.131.012-2.559-.53-3.321.325-.663.743-.2,2.1-.206,3.187-.016,1.627.016,1.643,1.749,1.647,4.385.009,8.771,0,13.156.006,1.744,0,1.747.017,1.756,1.827.006,1.1-.051,2.2.015,3.288.061,1.008-.312,1.328-1.321,1.315-3.675-.051-7.352-.02-11.028-.019-1.1,0-2.193.023-3.289,0-.711-.018-1.079.213-1.055.988.034,1.1.04,2.194,0,3.288-.033.821.261,1.158,1.109,1.142,2-.038,4-.01,6-.009,2.773,0,5.546-.007,8.319,0,1.634.006,1.64.018,1.652,1.715.009,1.225-.045,2.453.015,3.675.047.943-.325,1.221-1.236,1.2-2.643-.046-5.288-.016-7.932-.016q-6.965,0-13.93,0c-1.649,0-1.664-.021-1.667-1.727Q-1929.842,608.2-1929.833,601.43Z" transform="translate(-333.198 -138.208)" fill="#016fd0"/>
    <path id="Path_239" data-name="Path 239" d="M-2057.668,875.823c0-4.579-.01-9.158.006-13.737,0-1.407.035-1.446,1.363-1.448,7.352-.013,14.7.008,22.056-.023.978,0,1.4.259,1.34,1.3-.073,1.35,0,2.708-.022,4.062s-.037,1.372-1.4,1.376c-4.45.014-8.9,0-13.35.009-2.572.007-2.309-.28-2.32,2.228-.012,3.024-.006,3.024,3.1,3.025,4.063,0,8.126-.01,12.189.007,1.351.006,1.365.037,1.388,1.4.02,1.225-.057,2.454.021,3.675.068,1.064-.4,1.283-1.355,1.275-4.579-.036-9.158-.023-13.736-.011-1.579,0-1.584.026-1.6,1.589-.011.9.038,1.808-.011,2.708-.047.854.322,1.12,1.135,1.11,2.45-.031,4.9-.01,7.352-.009s4.9.029,7.352-.014c.883-.016,1.3.215,1.262,1.183-.061,1.416-.063,2.839,0,4.255.044.98-.4,1.18-1.268,1.172-3.482-.035-6.965-.014-10.448-.014q-5.611,0-11.222,0c-1.8,0-1.817-.012-1.821-1.76Q-2057.678,882.5-2057.668,875.823Z" transform="translate(-230.116 -359.348)" fill="#016fd0"/>
    <path id="Path_240" data-name="Path 240" d="M-1430.781,875.792c0-4.58-.009-9.161.005-13.741,0-1.376.033-1.411,1.369-1.413,7.355-.012,14.709.009,22.063-.023,1.006,0,1.394.31,1.331,1.332-.071,1.157-.012,2.321-.016,3.483-.008,1.912-.01,1.921-1.856,1.924-4.322.006-8.645-.013-12.967.008-2.33.011-2.347-.448-2.323,2.244.031,3.514-.411,2.974,2.936,3,4,.029,8,0,12,.011,1.642,0,1.647.021,1.661,1.722.009,1.1-.043,2.2.013,3.289.05.964-.233,1.384-1.291,1.347-2.126-.074-4.257-.022-6.386-.021-2.516,0-5.033.035-7.548-.017-.956-.02-1.489.2-1.391,1.269.123,1.333-.552,3,.352,3.914.745.755,2.341.217,3.557.226,3.935.027,7.87,0,11.806.016,1.39.006,1.41.035,1.432,1.378.023,1.419-.011,2.838.005,4.258.007.64-.245.962-.906.938-.386-.014-.774,0-1.161,0H-1428.8c-.323,0-.647-.025-.967,0-.753.062-1.035-.281-1.013-1.016.031-1.031,0-2.064,0-3.1Q-1430.782,881.307-1430.781,875.792Z" transform="translate(-735.615 -359.347)" fill="#016fd0"/>
    <path id="Path_241" data-name="Path 241" d="M-1263.392,860.676c-1.02,2.208-1.924,4.118-2.782,6.049-.345.776-.979.7-1.622.7q-5.321,0-10.643,0a7.14,7.14,0,0,0-2.108.2,2.228,2.228,0,0,0-1.906,2.323,2.475,2.475,0,0,0,1.766,2.49,5.544,5.544,0,0,0,1.911.21c2.515.016,5.032-.017,7.545.068a8.361,8.361,0,0,1,5.939,2.429c2.226,2.285,2.616,5.128,2.132,8.1a8.663,8.663,0,0,1-8.81,7.68c-5.286.122-10.577.021-15.866.066-.952.008-1.237-.334-1.2-1.238.054-1.417.045-2.838,0-4.256-.024-.832.29-1.127,1.125-1.117,2.9.035,5.8.013,8.707.012,1.741,0,3.483-.007,5.224,0a3.982,3.982,0,0,0,1.881-.354,2.315,2.315,0,0,0,1.393-2.143,2.359,2.359,0,0,0-1.326-2.192,4.021,4.021,0,0,0-2.064-.4c-2.387,0-4.775.043-7.159-.025-4.4-.124-7.519-2.494-8.446-6.324-1.585-6.546,2.268-11.642,9.313-12.168,2.439-.183,4.9-.1,7.349-.11C-1269.944,860.665-1266.853,860.676-1263.392,860.676Z" transform="translate(-849.099 -359.393)" fill="#016fd0"/>
    <path id="Path_242" data-name="Path 242" d="M-1119.737,860.951c-.938,2.029-1.858,4-2.757,5.979-.319.7-.928.582-1.491.583q-5.418.011-10.836.005a6.591,6.591,0,0,0-2.1.233,2.216,2.216,0,0,0-1.788,2.223,2.5,2.5,0,0,0,1.707,2.537,4.727,4.727,0,0,0,1.714.234q2.612-.009,5.225,0c.774,0,1.548.011,2.321.041,5.328.2,9.049,3.584,8.43,9.91a8.782,8.782,0,0,1-9.033,8.33c-5.222.108-10.449.021-15.673.054-.869.006-1.315-.191-1.273-1.171.062-1.416.059-2.839,0-4.256-.04-.971.393-1.187,1.27-1.181,4.386.03,8.772.018,13.158.006a8.836,8.836,0,0,0,1.921-.139,2.41,2.41,0,0,0,1.993-2.3,2.466,2.466,0,0,0-1.99-2.5,7.748,7.748,0,0,0-1.728-.139c-2.193-.018-4.386.02-6.579-.021-5.06-.1-8.258-2.824-8.959-7.6a8.992,8.992,0,0,1,6.479-10.308,12.216,12.216,0,0,1,3.6-.652q7.836-.045,15.673-.043A3.905,3.905,0,0,1-1119.737,860.951Z" transform="translate(-964.995 -359.481)" fill="#016fd0"/>
    <path id="Path_243" data-name="Path 243" d="M-1925.884,860.676c3.25,0,6.059.017,8.868-.011.8-.008,1.1.58,1.484,1.073,1.745,2.237,3.473,4.487,5.213,6.727.386.5.8.974,1.312,1.6,1.422-1.816,2.767-3.531,4.108-5.25.873-1.118,1.753-2.231,2.6-3.368a1.657,1.657,0,0,1,1.441-.786c2.633.024,5.266.01,7.9.01.117.734-.383,1.032-.681,1.4q-5.005,6.276-10.04,12.529c-.981,1.223-1.124,1.012-.023,2.394q5.123,6.429,10.241,12.864c.194.244.361.509.635.9a4.868,4.868,0,0,1-2.122.2c-1.935.022-3.872-.051-5.8.032a2.388,2.388,0,0,1-2.251-1.119c-1.987-2.7-4.049-5.337-6.065-7.976-.745.133-.94.754-1.274,1.192-1.717,2.258-3.425,4.524-5.077,6.829a2.233,2.233,0,0,1-2.074,1.071c-2.563-.061-5.128-.021-7.718-.021-.035-.8.5-1.145.844-1.569,3.3-4.131,6.6-8.262,9.956-12.348a1.38,1.38,0,0,0,0-2.111c-3.191-3.887-6.322-7.824-9.472-11.745C-1924.443,862.5-1925,861.79-1925.884,860.676Z" transform="translate(-336.384 -359.385)" fill="#016fd0"/>
    <path id="Path_244" data-name="Path 244" d="M-1544.437,609.862c-1.023,2.131-1.909,3.911-2.73,5.72a1.457,1.457,0,0,1-1.5.916,12.2,12.2,0,0,1-12.212-7.759,19,19,0,0,1-.4-13.608c1.788-5.334,5.753-8.094,11.177-8.792,3.391-.436,6.826-.134,10.24-.184.688-.01,1.09.2,1.078.984-.027,1.74-.034,3.481,0,5.221.017.818-.416.953-1.088.949-2.321-.014-4.645.083-6.961-.02-4.553-.2-7.4,2.927-7.734,7.367-.033.449-.024.9-.014,1.353.11,4.835,2.866,7.644,7.712,7.849C-1546.166,609.888-1545.461,609.862-1544.437,609.862Z" transform="translate(-629.529 -137.988)" fill="#016fd0"/>
    <path id="Path_245" data-name="Path 245" d="M-1620.975,601.392c0-4.517-.009-9.033,0-13.55,0-1.465.031-1.481,1.5-1.5,1.613-.019,3.226-.025,4.839,0,1.351.022,1.385.047,1.389,1.442q.021,9.291.007,18.583c0,2.968.014,5.936-.007,8.9-.009,1.352-.04,1.371-1.421,1.388-1.677.021-3.358-.054-5.032.026-1.071.052-1.3-.406-1.3-1.359C-1620.957,610.683-1620.974,606.037-1620.975,601.392Z" transform="translate(-582.242 -138.171)" fill="#026fd0"/>
    <path id="Path_246" data-name="Path 246" d="M-1570.175,879.9c.626-.178.936-.259,1.242-.353a9.177,9.177,0,0,0,6.919-9.34,9.267,9.267,0,0,0-7.208-9.142,12.786,12.786,0,0,0-3.445-.412q-5.516-.007-11.033-.008c-1.548,0-3.1.034-4.645-.012-.837-.024-1.2.292-1.133,1.122.025.321,0,.645,0,.968q0,12.775,0,25.55c0,.452.039.9.01,1.354-.061.955.252,1.407,1.319,1.343,1.479-.089,2.967-.016,4.45-.023,1.793-.008,1.8-.013,1.809-1.76.01-2.581-.007-5.162.014-7.743,0-.469-.215-1.186.538-1.238,1.313-.092,2.577-.3,3.638,1.063,2.292,2.953,4.788,5.749,7.213,8.6.364.428.623,1.05,1.3,1.054,2.8.017,5.6.007,8.836.007Zm-2.694-6.125c-1.149.119-2.319.045-3.479.049-1.419,0-2.84-.055-4.255.019-1.055.055-1.338-.4-1.3-1.361.057-1.287.051-2.58,0-3.868-.034-.884.224-1.309,1.193-1.26,1.287.064,2.579.016,3.869.016q1.451,0,2.9,0a8.978,8.978,0,0,1,.967.019,3.6,3.6,0,0,1,3.369,3.166A3.41,3.41,0,0,1-1572.869,873.777Z" transform="translate(-607.646 -359.364)" fill="#016fd0"/>
    <path id="Path_247" data-name="Path 247" d="M-1759.688,605.634c.652-.21,1.017-.332,1.384-.445a9.252,9.252,0,0,0,6.815-8.856,9.371,9.371,0,0,0-6.308-9.257,13.387,13.387,0,0,0-4.752-.721q-5.516,0-11.032-.005c-1.419,0-2.84.032-4.258-.009-.835-.024-1.191.3-1.116,1.131.029.32,0,.645,0,.967q0,13.064,0,26.129c0,.323.023.647,0,.967-.06.8.227,1.174,1.092,1.152,1.805-.044,3.613-.036,5.419,0,.75.013,1.06-.28,1.014-1.019-.028-.45,0-.9,0-1.354,0-2.387-.009-4.774.007-7.161,0-.477-.185-1.177.567-1.218,1.309-.073,2.589-.318,3.639,1.055,2,2.61,4.3,4.986,6.292,7.6a4.638,4.638,0,0,0,4.546,2.135c2-.2,4.044-.043,6.536-.043Zm-1.691-6.394a3.567,3.567,0,0,1-1.127.253c-2.642.029-5.285.018-7.927.041-.753.007-1.015-.348-1-1.063q.036-2.223,0-4.447c-.009-.66.279-.928.924-.921,1.354.015,2.707,0,4.061,0,1.16,0,2.32.005,3.48,0a4.151,4.151,0,0,1,1.7.318,3.3,3.3,0,0,1,2.13,2.956A3.205,3.205,0,0,1-1761.379,599.24Z" transform="translate(-454.854 -138.182)" fill="#016fd0"/>
    <path id="Path_248" data-name="Path 248" d="M-1431.858,615.013q-5.894-13.761-11.784-27.523a1.717,1.717,0,0,0-1.858-1.258c-2.382.07-4.771.092-7.152-.007a1.929,1.929,0,0,0-2.113,1.465c-3.855,9.065-7.765,18.108-11.649,27.161a2.308,2.308,0,0,0-.393,1.729c2.359,0,4.74-.029,7.12.016a1.291,1.291,0,0,0,1.416-.989c.486-1.33,1.063-2.626,1.545-3.957a1.52,1.52,0,0,1,1.669-1.2c3.866.063,7.734.055,11.6,0a1.515,1.515,0,0,1,1.678,1.2c.461,1.338,1.055,2.63,1.534,3.962a1.288,1.288,0,0,0,1.417.981c2.442-.039,4.885-.015,7.3-.015A2.012,2.012,0,0,0-1431.858,615.013Zm-21.64-11.223,4.032-10.007.42.082,3.968,9.925Z" transform="translate(-706.519 -138.087)" fill="#016fd0"/>
    <path id="Path_249" data-name="Path 249" d="M-2306.243,615.763q-6.1-14.222-12.2-28.444a1.491,1.491,0,0,0-1.595-1.063c-2.387.037-4.778.074-7.163-.016a2.056,2.056,0,0,0-2.282,1.509c-3.9,9.2-7.879,18.37-11.816,27.555-.157.366-.557.753-.119,1.287,2.338,0,4.724-.021,7.109.013a1.194,1.194,0,0,0,1.294-.881c.526-1.386,1.134-2.743,1.626-4.14a1.4,1.4,0,0,1,1.529-1.117q5.9.059,11.81,0a1.4,1.4,0,0,1,1.524,1.119c.5,1.4,1.088,2.758,1.616,4.144a1.2,1.2,0,0,0,1.3.878c2.448-.036,4.9-.014,7.485-.014A4.343,4.343,0,0,0-2306.243,615.763Zm-21.956-11.956,4.009-9.976.377-.066,4.043,10.042Z" transform="translate(-1.151 -138.1)" fill="#016fd0"/>
    <path id="Path_250" data-name="Path 250" d="M-1731.764,860.715c-5.283-.089-10.569-.033-15.853-.025-1.439,0-1.464.032-1.468,1.515-.013,4.511,0,9.022,0,13.533q0,6.863,0,13.727a1.79,1.79,0,0,1,0,.193c-.106.959.228,1.392,1.284,1.347,1.8-.077,3.609-.051,5.412-.01.854.019,1.112-.334,1.1-1.146-.035-2.255-.019-4.511-.007-6.767.009-1.692.02-1.7,1.68-1.714,2.642-.024,5.289.058,7.925-.077,4.778-.246,8.566-2.96,9.724-6.961C-1720.023,867.6-1723.74,860.85-1731.764,860.715Zm-.431,13.638c-2.759.179-5.536.086-8.3.111-.57.005-.794-.3-.793-.837,0-1.74.012-3.479-.01-5.219-.01-.8.447-.951,1.114-.941,1.288.018,2.577.005,4.118.005a25.27,25.27,0,0,1,3.988.14,3.244,3.244,0,0,1,2.862,2.946A3.227,3.227,0,0,1-1732.2,874.352Z" transform="translate(-478.931 -359.389)" fill="#016fd0"/>
  </g>
</svg>
