<svg xmlns="http://www.w3.org/2000/svg" width="20.566" height="20.566" viewBox="0 0 20.566 20.566">
  <g id="Group_717" data-name="Group 717" transform="translate(-683 -894.967)">
    <g id="Group_716" data-name="Group 716">
      <g id="Group_506" data-name="Group 506" transform="translate(-19 -67.033)">
        <rect id="Rectangle_964" data-name="Rectangle 964" width="11" height="18" transform="translate(709 963.566)" fill="#fff"/>
        <path id="facebook" d="M0,0V20.566H20.566V0ZM14.795,2.684c.149,0,.305,0,.466.013.591,0,1.208.054,1.82.108L17.014,5.24H15.37c-.771-.017-1.049.282-1.075,1.152V8.3h2.786l-.11,2.608H14.295v7.262H11.577V10.913H9.691V8.3h1.886V6.065A3.052,3.052,0,0,1,13.6,2.9a3.424,3.424,0,0,1,1.19-.218Z" transform="translate(702 962)" fill="#1355d9"/>
      </g>
    </g>
  </g>
</svg>
