<svg xmlns="http://www.w3.org/2000/svg" width="147.709" height="168.811" viewBox="0 0 147.709 168.811">
  <path id="lock" d="M137.159,168.811H10.551a10.279,10.279,0,0,1-7.418-3.048A10.058,10.058,0,0,1,0,158.26V84.405a10.067,10.067,0,0,1,3.132-7.5,10.254,10.254,0,0,1,7.418-3.048H21.1v-21.1a51.463,51.463,0,0,1,7.09-26.461,52.756,52.756,0,0,1,19.2-19.2A51.507,51.507,0,0,1,73.855,0a51.386,51.386,0,0,1,26.461,7.09,52.851,52.851,0,0,1,19.2,19.2,51.43,51.43,0,0,1,7.09,26.461v21.1h10.551a10.41,10.41,0,0,1,10.551,10.551V158.26a10.41,10.41,0,0,1-10.551,10.551ZM52.753,158.26h42.2L81.6,125.126a21.817,21.817,0,0,0,9.646-7.747A21.069,21.069,0,0,0,73.855,84.405a21.04,21.04,0,0,0-17.392,32.97,21.817,21.817,0,0,0,9.646,7.747ZM105.507,52.753a30.513,30.513,0,0,0-9.233-22.419A30.454,30.454,0,0,0,73.934,21.1a30.669,30.669,0,0,0-22.419,9.233A30.4,30.4,0,0,0,42.2,52.753v21.1h63.3Z" fill="#f4b318"/>
</svg>
