<svg xmlns="http://www.w3.org/2000/svg" xmlns:xlink="http://www.w3.org/1999/xlink" width="50" height="50" viewBox="0 0 50 50">
  <defs>
    <style>
      .cls-1 {
        fill: none;
      }

      .cls-2 {
        clip-path: url(#clip-path);
      }

      .cls-3 {
        fill: #fff;
      }
    </style>
    <clipPath id="clip-path">
      <rect id="Rectangle_979" data-name="Rectangle 979" class="cls-1" width="50" height="50" transform="translate(554.189 -194.089)"/>
    </clipPath>
  </defs>
  <g id="Group_717" data-name="Group 717" transform="translate(-157.454 -1028)">
    <g id="Group_716" data-name="Group 716">
      <g id="Component_40_3" data-name="Component 40 – 3" transform="translate(157.454 1028)">
        <g id="Group_596" data-name="Group 596" class="cls-2" transform="translate(-554.189 194.089)">
          <g id="Group_595" data-name="Group 595">
            <path id="Path_152" data-name="Path 152" class="cls-3" d="M577.359-149.536c0,.1.012.335.036.719a8.625,8.625,0,0,1,.017.952,6.335,6.335,0,0,1-.108.845,1.191,1.191,0,0,1-.36.7,1.1,1.1,0,0,1-.735.231h-11.5a9.975,9.975,0,0,1-7.313-3.037,9.97,9.97,0,0,1-3.037-7.31v-25.3a9.964,9.964,0,0,1,3.037-7.313,9.967,9.967,0,0,1,7.313-3.037h11.5a1.1,1.1,0,0,1,.809.341,1.1,1.1,0,0,1,.341.81c0,.1.012.335.036.719a8.625,8.625,0,0,1,.017.952,6.335,6.335,0,0,1-.108.845,1.191,1.191,0,0,1-.36.7,1.1,1.1,0,0,1-.736.233h-11.5a5.532,5.532,0,0,0-4.06,1.69,5.536,5.536,0,0,0-1.69,4.06v25.3a5.539,5.539,0,0,0,1.69,4.062,5.536,5.536,0,0,0,4.06,1.688h11.213l.413.036.413.108.288.2.252.324.072.485Z"/>
            <path id="Path_153" data-name="Path 153" class="cls-3" d="M604.021-169.084a1.712,1.712,0,0,1-.529,1.252l-15.143,15.144a1.781,1.781,0,0,1-2.519-.009,1.783,1.783,0,0,1-.517-1.243v-8.019h-12.47a1.805,1.805,0,0,1-1.781-1.781v-10.689a1.805,1.805,0,0,1,1.781-1.781h12.47v-8.016a1.713,1.713,0,0,1,.529-1.253,1.748,1.748,0,0,1,2.472-.033l.033.033,15.145,15.144A1.71,1.71,0,0,1,604.021-169.084Z"/>
          </g>
        </g>
      </g>
    </g>
  </g>
</svg>
