<svg xmlns="http://www.w3.org/2000/svg" xmlns:xlink="http://www.w3.org/1999/xlink" width="28" height="28" viewBox="0 0 28 28">
  <defs>
    <style>
      .cls-1, .cls-3 {
        fill: #cfcfcf;
      }

      .cls-1 {
        stroke: #707070;
      }

      .cls-2 {
        clip-path: url(#clip-path);
      }
    </style>
    <clipPath id="clip-path">
      <rect id="Rectangle_971" data-name="Rectangle 971" class="cls-1" width="28" height="28" transform="translate(-4638 2427)"/>
    </clipPath>
  </defs>
  <g id="Group_717" data-name="Group 717" transform="translate(-66.5 -315)">
    <g id="Mask_Group_25" data-name="Mask Group 25" class="cls-2" transform="translate(4704.5 -2112)">
      <g id="Page-1" transform="translate(-4637.971 2427.03)">
        <g id="_031---University" data-name="031---University">
          <path id="Rectangle-path" class="cls-3" d="M228.571,365.714h2.994V371.2h-2.994Z" transform="translate(-216.097 -345.756)"/>
          <path id="Rectangle-path-2" data-name="Rectangle-path" class="cls-3" d="M0,484.571H6.486v1H0Z" transform="translate(0 -458.127)"/>
          <path id="Rectangle-path-3" data-name="Rectangle-path" class="cls-3" d="M137.143,228.571h12.973v1H137.143Z" transform="translate(-129.659 -216.097)"/>
          <path id="Shape" class="cls-3" d="M20.472,211.284a1,1,0,0,1-1-1H16.1a.5.5,0,0,0-.446.276l-.86,1.72h5.679Z" transform="translate(-13.986 -198.81)"/>
          <path id="Shape-2" data-name="Shape" class="cls-3" d="M166.406,276.12V265.143H155.429V276.12h2.994v-5.987a.5.5,0,0,1,.5-.5h3.992a.5.5,0,0,1,.5.5v5.987Zm-6.486-8.482a.5.5,0,1,1-1,0v-1a.5.5,0,0,1,1,0Zm2.994,0a.5.5,0,1,1-1,0v-1a.5.5,0,0,1,1,0Z" transform="translate(-146.947 -250.674)"/>
          <path id="Shape-3" data-name="Shape" class="cls-3" d="M141.081,137.289a.5.5,0,0,0-.353-.146h-9.6a.5.5,0,0,0-.383.18l-1.514,1.816h13.7Z" transform="translate(-122.181 -129.659)"/>
          <path id="Shape-4" data-name="Shape" class="cls-3" d="M150.116,1.75h.006L143.629,0l-6.486,1.742,6.489,1.75Z" transform="translate(-129.659)"/>
          <path id="Shape-5" data-name="Shape" class="cls-3" d="M393.143,212.282h5.679l-.86-1.72a.5.5,0,0,0-.446-.276h-3.375a1,1,0,0,1-1,1Z" transform="translate(-371.688 -198.81)"/>
          <path id="Shape-6" data-name="Shape" class="cls-3" d="M186.592,64.29l-3.735-1V66.32h7.983V63.287l-3.735,1A.986.986,0,0,1,186.592,64.29Z" transform="translate(-172.878 -59.833)"/>
          <path id="Rectangle-path-4" data-name="Rectangle-path" class="cls-3" d="M118.857,192h14.968v1H118.857Z" transform="translate(-112.371 -181.522)"/>
          <path id="Shape-7" data-name="Shape" class="cls-3" d="M16.128,265.143H9.143V276.12h6.985Zm-4.491,8.981a.5.5,0,1,1-1,0v-1a.5.5,0,1,1,1,0Zm0-2.994a.5.5,0,0,1-1,0v-1a.5.5,0,0,1,1,0Zm0-2.994a.5.5,0,0,1-1,0v-1a.5.5,0,1,1,1,0Zm2.994,5.987a.5.5,0,1,1-1,0v-1a.5.5,0,1,1,1,0Zm0-2.994a.5.5,0,1,1-1,0v-1a.5.5,0,1,1,1,0Zm0-2.994a.5.5,0,1,1-1,0v-1a.5.5,0,1,1,1,0Z" transform="translate(-8.644 -250.674)"/>
          <path id="Rectangle-path-5" data-name="Rectangle-path" class="cls-3" d="M393.143,484.571h6.486v1h-6.486Z" transform="translate(-371.688 -458.127)"/>
          <path id="Shape-8" data-name="Shape" class="cls-3" d="M145.625,484.571h-8.482v1.5h12.973v-1.5Z" transform="translate(-129.659 -458.127)"/>
          <path id="Shape-9" data-name="Shape" class="cls-3" d="M381.842,265.143h-6.985V276.12h6.985Zm-4.491,8.981a.5.5,0,1,1-1,0v-1a.5.5,0,1,1,1,0Zm0-2.994a.5.5,0,1,1-1,0v-1a.5.5,0,1,1,1,0Zm0-2.994a.5.5,0,1,1-1,0v-1a.5.5,0,1,1,1,0Zm2.994,5.987a.5.5,0,1,1-1,0v-1a.5.5,0,1,1,1,0Zm0-2.994a.5.5,0,0,1-1,0v-1a.5.5,0,0,1,1,0Zm0-2.994a.5.5,0,0,1-1,0v-1a.5.5,0,1,1,1,0Z" transform="translate(-354.4 -250.674)"/>
          <path id="Shape-10" data-name="Shape" class="cls-3" d="M358.283,50.651h-1v1.865a1.529,1.529,0,0,0,.682,1.275.5.5,0,1,0,.554-.83.533.533,0,0,1-.238-.445V50.651Z" transform="translate(-337.787 -47.887)"/>
        </g>
      </g>
    </g>
  </g>
</svg>
