<svg xmlns="http://www.w3.org/2000/svg" xmlns:xlink="http://www.w3.org/1999/xlink" width="28" height="28" viewBox="0 0 28 28">
  <defs>
    <style>
      .cls-1, .cls-3 {
        fill: #cfcfcf;
      }

      .cls-1 {
        stroke: #707070;
      }

      .cls-2 {
        clip-path: url(#clip-path);
      }
    </style>
    <clipPath id="clip-path">
      <rect id="Rectangle_975" data-name="Rectangle 975" class="cls-1" width="28" height="28" transform="translate(-4638 2427)"/>
    </clipPath>
  </defs>
  <g id="Group_719" data-name="Group 719" transform="translate(-66.5 -315)">
    <g id="Group_718" data-name="Group 718">
      <g id="Mask_Group_28" data-name="Mask Group 28" class="cls-2" transform="translate(4704.5 -2112)">
        <g id="Group_586" data-name="Group 586" transform="translate(-4637.971 2427.163)">
          <g id="Group_585" data-name="Group 585" transform="translate(0 0)">
            <path id="Path_123" data-name="Path 123" class="cls-3" d="M219.429,259.3h1.131a.314.314,0,0,0,.333-.333v-1.6a.314.314,0,0,0-.333-.333h-1.131a.314.314,0,0,0-.333.333v1.6A.356.356,0,0,0,219.429,259.3Z" transform="translate(-207.188 -243.203)"/>
            <path id="Path_124" data-name="Path 124" class="cls-3" d="M262.27,259.3H263.4a.314.314,0,0,0,.333-.333v-1.6a.314.314,0,0,0-.333-.333H262.27a.314.314,0,0,0-.333.333v1.6A.356.356,0,0,0,262.27,259.3Z" transform="translate(-247.7 -243.203)"/>
            <path id="Path_125" data-name="Path 125" class="cls-3" d="M219.429,204.222h1.131a.314.314,0,0,0,.333-.333v-1.6a.314.314,0,0,0-.333-.333h-1.131a.314.314,0,0,0-.333.333v1.6A.314.314,0,0,0,219.429,204.222Z" transform="translate(-207.188 -191.116)"/>
            <path id="Path_126" data-name="Path 126" class="cls-3" d="M262.27,204.222H263.4a.314.314,0,0,0,.333-.333v-1.6a.314.314,0,0,0-.333-.333H262.27a.314.314,0,0,0-.333.333v1.6A.314.314,0,0,0,262.27,204.222Z" transform="translate(-247.7 -191.116)"/>
            <path id="Path_127" data-name="Path 127" class="cls-3" d="M55.32,362.3H54.189a.314.314,0,0,0-.333.333v1.6a.314.314,0,0,0,.333.333H55.32a.314.314,0,0,0,.333-.333v-1.6A.314.314,0,0,0,55.32,362.3Z" transform="translate(-50.929 -342.745)"/>
            <path id="Path_128" data-name="Path 128" class="cls-3" d="M55.32,418.608H54.189a.314.314,0,0,0-.333.333v1.53a.314.314,0,0,0,.333.333H55.32a.314.314,0,0,0,.333-.333v-1.6A.3.3,0,0,0,55.32,418.608Z" transform="translate(-50.929 -395.989)"/>
            <path id="Path_129" data-name="Path 129" class="cls-3" d="M99.384,362.3H98.253a.314.314,0,0,0-.333.333v1.6a.314.314,0,0,0,.333.333h1.131a.314.314,0,0,0,.333-.333v-1.6A.314.314,0,0,0,99.384,362.3Z" transform="translate(-92.598 -342.745)"/>
            <path id="Path_130" data-name="Path 130" class="cls-3" d="M99.384,418.608H98.253a.314.314,0,0,0-.333.333v1.53a.314.314,0,0,0,.333.333h1.131a.314.314,0,0,0,.333-.333v-1.6A.3.3,0,0,0,99.384,418.608Z" transform="translate(-92.598 -395.989)"/>
            <path id="Path_131" data-name="Path 131" class="cls-3" d="M55.32,308.448H54.189a.314.314,0,0,0-.333.333v1.53a.314.314,0,0,0,.333.333H55.32a.314.314,0,0,0,.333-.333v-1.6A.3.3,0,0,0,55.32,308.448Z" transform="translate(-50.929 -291.816)"/>
            <path id="Path_132" data-name="Path 132" class="cls-3" d="M99.384,308.448H98.253a.314.314,0,0,0-.333.333v1.53a.314.314,0,0,0,.333.333h1.131a.314.314,0,0,0,.333-.333v-1.6A.3.3,0,0,0,99.384,308.448Z" transform="translate(-92.598 -291.816)"/>
            <path id="Path_133" data-name="Path 133" class="cls-3" d="M383.445,363.342h1.131a.314.314,0,0,0,.333-.333v-1.6a.314.314,0,0,0-.333-.333h-1.131a.314.314,0,0,0-.333.333v1.6A.314.314,0,0,0,383.445,363.342Z" transform="translate(-362.289 -341.588)"/>
            <path id="Path_134" data-name="Path 134" class="cls-3" d="M383.445,419.646h1.131a.314.314,0,0,0,.333-.333v-1.6a.314.314,0,0,0-.333-.333h-1.131a.314.314,0,0,0-.333.333v1.6A.314.314,0,0,0,383.445,419.646Z" transform="translate(-362.289 -394.832)"/>
            <path id="Path_135" data-name="Path 135" class="cls-3" d="M427.509,363.342h1.131a.314.314,0,0,0,.333-.333v-1.6a.314.314,0,0,0-.333-.333h-1.131a.314.314,0,0,0-.333.333v1.6A.314.314,0,0,0,427.509,363.342Z" transform="translate(-403.958 -341.588)"/>
            <path id="Path_136" data-name="Path 136" class="cls-3" d="M427.509,419.646h1.131a.314.314,0,0,0,.333-.333v-1.6a.314.314,0,0,0-.333-.333h-1.131a.314.314,0,0,0-.333.333v1.6A.314.314,0,0,0,427.509,419.646Z" transform="translate(-403.958 -394.832)"/>
            <path id="Path_137" data-name="Path 137" class="cls-3" d="M383.445,309.486h1.131a.314.314,0,0,0,.333-.333v-1.6a.314.314,0,0,0-.333-.333h-1.131a.314.314,0,0,0-.333.333v1.6A.314.314,0,0,0,383.445,309.486Z" transform="translate(-362.289 -290.659)"/>
            <path id="Path_138" data-name="Path 138" class="cls-3" d="M427.509,309.486h1.131a.314.314,0,0,0,.333-.333v-1.6a.314.314,0,0,0-.333-.333h-1.131a.314.314,0,0,0-.333.333v1.6A.314.314,0,0,0,427.509,309.486Z" transform="translate(-403.958 -290.659)"/>
            <path id="Path_139" data-name="Path 139" class="cls-3" d="M27.675,14.157a1,1,0,0,0-.732-.266H19.958v-1.73a.923.923,0,0,0-.466-.8L14.968,8.3V7.371h3.26a1.023,1.023,0,0,0,1-1V4.111a1.023,1.023,0,0,0-1-1H14.9a1,1,0,0,0-.931-.665,1.023,1.023,0,0,0-1,1V8.3L8.449,11.3a1.014,1.014,0,0,0-.466.8v1.73H1a1.084,1.084,0,0,0-1,1.064v2.129H0V29.125a1.023,1.023,0,0,0,1,1H26.943a1.023,1.023,0,0,0,1-1V17.017h0V14.888A1.4,1.4,0,0,0,27.675,14.157Zm-17.7-1.464,3.992-2.661,3.992,2.661v4.324h0v11.11H16.7V23.47a2.74,2.74,0,0,0-2.728-2.728,2.784,2.784,0,0,0-2.728,2.728v4.657H9.979V12.693ZM2,18.015H7.983V28.127H2ZM25.945,28.127H19.958V18.015h5.987V28.127Z" transform="translate(0 -2.448)"/>
          </g>
        </g>
      </g>
    </g>
  </g>
</svg>
