<svg xmlns="http://www.w3.org/2000/svg" xmlns:xlink="http://www.w3.org/1999/xlink" width="28" height="28" viewBox="0 0 28 28">
  <defs>
    <style>
      .cls-1, .cls-3 {
        fill: #cfcfcf;
      }

      .cls-1 {
        stroke: #707070;
      }

      .cls-2 {
        clip-path: url(#clip-path);
      }
    </style>
    <clipPath id="clip-path">
      <rect id="Rectangle_976" data-name="Rectangle 976" class="cls-1" width="28" height="28" transform="translate(-4638 2427)"/>
    </clipPath>
  </defs>
  <g id="Group_721" data-name="Group 721" transform="translate(-66.5 -315)">
    <g id="Group_720" data-name="Group 720">
      <g id="Mask_Group_29" data-name="Mask Group 29" class="cls-2" transform="translate(4704.5 -2112)">
        <g id="Group_587" data-name="Group 587" transform="translate(-4638 2430.447)">
          <path id="Path_140" data-name="Path 140" class="cls-3" d="M2.75,198.873,0,201.921v.031H8.626v-3.079Z" transform="translate(0 -191.444)"/>
          <path id="Path_141" data-name="Path 141" class="cls-3" d="M195.258,156.989h-7.515l0,0v15.965h2.151v-4.1h3.217v4.1h2.151V156.992Zm-2.937,10.226H190.68v-1.641h1.641Zm0-3.281H190.68v-1.641h1.641Zm0-3.281H190.68v-1.641h1.641Z" transform="translate(-177.473 -151.851)"/>
          <path id="Path_142" data-name="Path 142" class="cls-3" d="M8.626,283.982H0V293H8.626ZM6.42,290.544H2.206V288.9H6.42v1.641Zm0-3.281H2.206v-1.641H6.42v1.641Z" transform="translate(0 -271.899)"/>
          <path id="Path_143" data-name="Path 143" class="cls-3" d="M360.137,198.873l2.75,3.048v.031H354.26v-3.079Z" transform="translate(-334.886 -191.444)"/>
          <path id="Path_144" data-name="Path 144" class="cls-3" d="M354.26,283.982V293h8.626v-9.023Zm6.42,6.563h-4.215V288.9h4.215Zm0-3.281h-4.215v-1.641h4.215Z" transform="translate(-334.886 -271.899)"/>
          <path id="Path_145" data-name="Path 145" class="cls-3" d="M195.081,66.529l-3.792-3.5-3.738,3.5Z" transform="translate(-177.294 -63.031)"/>
        </g>
      </g>
    </g>
  </g>
</svg>
