<svg xmlns="http://www.w3.org/2000/svg" width="319.718" height="136" viewBox="0 0 319.718 136">
  <g id="Telenor" transform="translate(1368.09 1659.431)">
    <path id="Path_227" data-name="Path 227" d="M-1239.639-1659.431c1.376.158,2.756.289,4.128.479a26.667,26.667,0,0,1,10.43,3.312,12.074,12.074,0,0,1,3.2,2.775,6.312,6.312,0,0,1-.009,8.435,17.266,17.266,0,0,1-5.629,4.233,79.178,79.178,0,0,1-14.99,5.676c-8.009,2.36-16.156,4.17-24.258,6.163a93.2,93.2,0,0,0-13.212,4.115,7.942,7.942,0,0,0-5.023,5.489,3.432,3.432,0,0,0,1.771,4.145c7.759,3.784,14.271,9.254,20.377,15.215a109.545,109.545,0,0,1,23.738,33.863,52.256,52.256,0,0,1,4.809,23.785,24.842,24.842,0,0,1-3.3,12.259c-2.765,4.493-6.879,6.381-12.072,6.01-5.074-.363-9.432-2.571-13.469-5.473a52.5,52.5,0,0,1-14.443-16.177,94.992,94.992,0,0,1-11.938-32.29,142.725,142.725,0,0,1-2.284-26.013c.01-1.077,0-2.158.1-3.229a2.133,2.133,0,0,0-1.5-2.312,9.6,9.6,0,0,0-6.109-.25c-3.132.725-5.692,2.516-8.165,4.446a101.977,101.977,0,0,0-13.586,13.469c-4.443,5.057-8.474,10.448-12.787,15.61a51.8,51.8,0,0,1-7.389,7.639,19.517,19.517,0,0,1-15.84,4.35c-5.872-.977-9.641-4.866-10.683-10.72a5.185,5.185,0,0,0-.313-1.6v-3.626c.193-1,.117-2.02.382-3.02a22.756,22.756,0,0,1,4.651-8.513,57.01,57.01,0,0,1,12.049-10.922,97.1,97.1,0,0,1,12.77-7.5,91.975,91.975,0,0,1,21.028-7.313,76.5,76.5,0,0,1,11.148-1.586,54.947,54.947,0,0,1,12.495.412c2.07.347,2.5.086,2.818-1.964a48.18,48.18,0,0,1,3.571-12.219,46.916,46.916,0,0,1,7.078-11.231,39.1,39.1,0,0,1,12.49-9.439,68.441,68.441,0,0,1,13.364-5.163,32.827,32.827,0,0,1,8.713-1.242,1.46,1.46,0,0,0,.844-.076Z" transform="translate(0 0)" fill="#01abf9"/>
    <path id="Path_228" data-name="Path 228" d="M175.194-1344.22a18.716,18.716,0,0,1,6.028-5.085,11.192,11.192,0,0,1,7.26-1.119,8.282,8.282,0,0,1,6.55,7.449,20.055,20.055,0,0,1,.153,2.513q-.006,11.232.012,22.463c0,.678-.2.916-.876.948-2.4.113-2.4.132-2.4-2.266q0-9.813,0-19.626a15.746,15.746,0,0,0-.264-3.448c-.874-3.922-3.92-5.751-7.9-4.728a14.429,14.429,0,0,0-6.566,4.293,6.413,6.413,0,0,0-1.968,5.022c.143,6.591.04,13.188.07,19.782,0,.746-.263.944-.947.972-2.345.1-2.344.116-2.344-2.16,0-9.984.01-19.968-.02-29.951,0-.8.295-.991.992-1.024,2.216-.1,2.215-.119,2.215,2.054Z" transform="translate(-1296.902 -260.051)"/>
    <path id="Path_229" data-name="Path 229" d="M-436.664-1370.168c0-3.808-.01-7.617.012-11.425,0-.535-.114-.73-.685-.708-1.181.045-2.366-.01-3.548.024-.545.016-.769-.213-.794-.718,0-.079-.011-.157-.015-.236-.083-1.708-.026-1.769,1.658-1.769.867,0,1.737-.035,2.6.012.59.032.8-.106.787-.753-.046-2.205.006-4.412-.033-6.618-.011-.62.2-.827.791-.868,2.469-.176,2.468-.187,2.468,2.265,0,1.786.016,3.572-.011,5.358-.007.475.107.624.6.617,2-.03,4,.018,5.993-.029.681-.016.866.264.9.862.1,1.868.115,1.867-1.75,1.867-1.709,0-3.418.018-5.126-.011-.495-.008-.62.151-.619.629.015,7.38,0,14.76.021,22.141.008,2.432.952,3.372,3.384,3.469,1.129.045,2.261.032,3.39,0,.537-.014.733.188.787.713.2,1.983.081,2.146-1.915,2.129a34.772,34.772,0,0,1-3.781-.078c-3.22-.378-5.062-2.345-5.1-5.608-.046-3.755-.011-7.511-.011-11.267Z" transform="translate(-780.102 -224.114)"/>
    <path id="Path_230" data-name="Path 230" d="M-112.169-1405.521c0-6.434.015-12.868-.021-19.3,0-.754.279-.934.93-.993,2.191-.2,2.314-.1,2.314,2.031q0,18.042,0,36.083c0,.394-.014.79.024,1.181.2,2.054,1.195,2.99,3.267,3.064.656.023,1.315.032,1.971.009.475-.017.649.2.7.642.227,2,.106,2.144-1.882,2.153a14.2,14.2,0,0,1-2.828-.166,5.23,5.23,0,0,1-4.436-5.086c-.038-.549-.037-1.1-.037-1.653Q-112.171-1396.54-112.169-1405.521Z" transform="translate(-1057.597 -196.669)"/>
    <path id="Path_231" data-name="Path 231" d="M572.8-1340.58c.3-.441.6-.885.9-1.324a24.259,24.259,0,0,1,3.5-4.249,7.277,7.277,0,0,1,5.621-1.755.475.475,0,0,1,.5.474,2.966,2.966,0,0,1,.014.393c.048,2.458.048,2.46-2.365,2.485a4.829,4.829,0,0,0-2.969,1.111,25.568,25.568,0,0,0-5.128,6.239,1.358,1.358,0,0,0-.1.84c-.006,6.832-.017,13.664.014,20.495,0,.747-.249.943-.936.969-2.256.085-2.255.1-2.255-2.153q0-14.977-.018-29.954c0-.761.237-1.007.965-1.035,2.113-.082,2.112-.1,2.112,2v5.4Z" transform="translate(-1631.714 -262.199)"/>
    <path id="Path_232" data-name="Path 232" d="M-288.922-1339.8c-.454-4.161-2.24-7.518-6.11-9.48a13.954,13.954,0,0,0-7.973-1.248,11.173,11.173,0,0,0-10.025,10.022,91.12,91.12,0,0,0-.005,13.93,10.155,10.155,0,0,0,7.691,9.325,21.467,21.467,0,0,0,14.739-1.45c1.636-.726,1.723-1.162.675-2.673-.045-.064-.1-.123-.14-.19-.306-.5-.661-.535-1.18-.251a18.981,18.981,0,0,1-11.024,2.2,7.8,7.8,0,0,1-7.355-6.344,27.771,27.771,0,0,1-.313-5.334c-.025-.6.148-.745.74-.739,3.26.031,6.52.014,9.78.014q4.969,0,9.938,0c.386,0,.709.045.694-.54C-288.853-1334.967-288.659-1337.391-288.922-1339.8Zm-3.791,5.166c-2.759-.024-5.519-.011-8.279-.011s-5.519-.011-8.279.01c-.5,0-.691-.1-.669-.646a33.338,33.338,0,0,1,.256-5.733,8.336,8.336,0,0,1,9.318-6.741c5.081.51,8.085,3.8,8.272,9.076.04,1.128-.01,2.259.036,3.386C-292.037-1334.766-292.2-1334.626-292.712-1334.63Z" transform="translate(-888.243 -260.039)"/>
    <path id="Path_233" data-name="Path 233" d="M-25.28-1332.043c3.26.028,6.52.013,9.781.013q4.969,0,9.939,0c.372,0,.7.074.684-.53-.05-2.232.064-4.472-.073-6.7-.236-3.816-1.641-7.1-4.921-9.32a13.066,13.066,0,0,0-8.956-1.98A11.238,11.238,0,0,0-29.2-1339.667q-.187,6.1,0,12.213a10.556,10.556,0,0,0,9.078,10.515,22.161,22.161,0,0,0,13.445-1.774c1.609-.732,1.708-1.127.722-2.608-.029-.044-.062-.085-.089-.13a.851.851,0,0,0-1.348-.343,18.852,18.852,0,0,1-11.032,2.159,7.822,7.822,0,0,1-7.286-6.337,27.482,27.482,0,0,1-.326-5.336C-26.05-1331.915-25.859-1332.048-25.28-1332.043Zm-.741-3.02a28.611,28.611,0,0,1,.326-6.2,8.315,8.315,0,0,1,9.191-6.513c4.934.458,7.988,3.592,8.283,8.544.078,1.309.037,2.625.1,3.936.025.542-.176.652-.677.647-2.76-.022-5.519-.01-8.279-.01s-5.519,0-8.279,0C-25.645-1334.661-26.03-1334.53-26.021-1335.063Z" transform="translate(-1127.407 -260.024)"/>
    <path id="Path_234" data-name="Path 234" d="M387.8-1341a9.627,9.627,0,0,0-6.6-8.706,18.019,18.019,0,0,0-9.245-.693,10.254,10.254,0,0,0-9.075,9.426c-.278,2.437-.044,4.881-.153,7.321.109,2.518-.168,5.046.18,7.555a9.907,9.907,0,0,0,6.4,8.457,17.571,17.571,0,0,0,9.079.8c5.484-.763,9.062-4.37,9.446-9.841A91.568,91.568,0,0,0,387.8-1341Zm-3.108,11.18a17.307,17.307,0,0,1-.29,4,7.116,7.116,0,0,1-6.193,6.042,15.17,15.17,0,0,1-5.794-.01,7.208,7.208,0,0,1-6.188-6.427,7.108,7.108,0,0,1-.144-1.092c-.014-2.127-.007-4.254-.007-6.38a50.03,50.03,0,0,1,.144-7.315,7.268,7.268,0,0,1,6.845-6.571,16.548,16.548,0,0,1,5.409.17,7.227,7.227,0,0,1,6.059,6.725C384.9-1337.072,384.62-1333.444,384.693-1329.823Z" transform="translate(-1457.529 -259.988)"/>
  </g>
</svg>
