<svg xmlns="http://www.w3.org/2000/svg" xmlns:xlink="http://www.w3.org/1999/xlink" width="28" height="28" viewBox="0 0 28 28">
  <defs>
    <style>
      .cls-1, .cls-3 {
        fill: #cfcfcf;
      }

      .cls-1 {
        stroke: #707070;
      }

      .cls-2 {
        clip-path: url(#clip-path);
      }
    </style>
    <clipPath id="clip-path">
      <rect id="Rectangle_978" data-name="Rectangle 978" class="cls-1" width="28" height="28" transform="translate(-4638 2427)"/>
    </clipPath>
  </defs>
  <g id="Group_723" data-name="Group 723" transform="translate(-66.5 -315)">
    <g id="Mask_Group_31" data-name="Mask Group 31" class="cls-2" transform="translate(4704.501 -2112)">
      <g id="open-book" transform="translate(-4637.971 2430.327)">
        <g id="Group_594" data-name="Group 594" transform="translate(0 0)">
          <g id="Group_593" data-name="Group 593">
            <path id="Path_148" data-name="Path 148" class="cls-3" d="M35.83,35.049h0a.985.985,0,0,0-.7.29,1,1,0,0,0-.294.71V51.042a1,1,0,0,0,1,1c2.327.006,6.226.491,8.916,3.306V39.656a.958.958,0,0,0-.137-.506C42.405,35.595,38.163,35.054,35.83,35.049Z" transform="translate(-31.556 -35.049)"/>
            <path id="Path_149" data-name="Path 149" class="cls-3" d="M166.668,51.041V36.048a1,1,0,0,0-.995-1h0c-2.332.006-6.575.546-8.783,4.1a.958.958,0,0,0-.137.506v15.69c2.69-2.815,6.589-3.3,8.916-3.306A1,1,0,0,0,166.668,51.041Z" transform="translate(-142.004 -35.048)"/>
            <path id="Path_150" data-name="Path 150" class="cls-3" d="M182.291,71.8h-.725V84.336a2.558,2.558,0,0,1-2.55,2.552c-1.974,0-5.229.391-7.534,2.572a24.07,24.07,0,0,1,10.585.2,1,1,0,0,0,1.223-.974V72.8A1,1,0,0,0,182.291,71.8Z" transform="translate(-155.349 -68.343)"/>
            <path id="Path_151" data-name="Path 151" class="cls-3" d="M1.725,84.336V71.8H1a1,1,0,0,0-1,1V88.69a1,1,0,0,0,1.223.974,24.068,24.068,0,0,1,10.585-.2c-2.305-2.182-5.56-2.568-7.534-2.572A2.558,2.558,0,0,1,1.725,84.336Z" transform="translate(0 -68.343)"/>
          </g>
        </g>
      </g>
    </g>
  </g>
</svg>
