<svg xmlns="http://www.w3.org/2000/svg" width="256" height="159.381" viewBox="0 0 256 159.381">
  <g id="Visa" transform="translate(5233 1530.69)">
    <rect id="Rectangle_998" data-name="Rectangle 998" width="256" height="128" transform="translate(-5233 -1515)" fill="#fff"/>
    <g id="Group_717" data-name="Group 717" transform="translate(-5475.388 -1916.963)">
      <path id="Path_201" data-name="Path 201" d="M370.487,409.341q-62.391,0-124.786.048c-2.354,0-3.313-.367-3.205-3.038.236-5.848.186-11.714.014-17.567-.064-2.15.619-2.6,2.6-2.492,3.015.17,6.045.044,9.069.044q120.525,0,241.055-.064c2.6,0,3.12.757,3.049,3.152q-.258,8.641,0,17.294c.067,2.219-.629,2.673-2.73,2.67Q433.019,409.3,370.487,409.341Z" transform="translate(0 0)" fill="#2a2968"/>
      <path id="Path_202" data-name="Path 202" d="M370.388,468.736q-62.67,0-125.337.057c-2.193,0-2.583-.7-2.549-2.643.106-5.947.122-11.9,0-17.844-.041-2.017.489-2.659,2.59-2.631,9.8.117,19.606.064,29.409.064q110.222-.007,220.441-.083c2.719,0,3.393.762,3.313,3.352-.179,5.667-.14,11.347,0,17.018.055,2.191-.67,2.778-2.808,2.774q-62.532-.079-125.062-.039Z" transform="translate(0.016 76.854)" fill="#f4b318"/>
      <path id="Subtraction_2" data-name="Subtraction 2" d="M55.9,63.225c-.141,0-.292,0-.451-.014-1.407-.084-2.925-.125-4.634-.125-1.932,0-3.883.052-5.771.1h-.03c-.064,0-.129,0-.191,0-1.279,0-2.119-.332-2.351-1.988a29.651,29.651,0,0,0-.6-2.92,29.232,29.232,0,0,1-.61-2.969c-.2-1.442-.9-1.715-2.122-1.715h-.064c-2.849.023-5.635.036-8.28.036-3.082,0-6.119-.016-9.024-.048H21.72a2.1,2.1,0,0,0-2.287,1.747c-.333,1.065-.741,2.159-1.1,3.125l-.015.039c-.366.987-.744,2.008-1.064,3.027a2.057,2.057,0,0,1-2.271,1.662h-.1l-.781-.014h-.02c-2.058-.038-4.186-.077-6.279-.077-2.064,0-3.881.039-5.555.117-.163.008-.318.012-.463.012-.9,0-1.43-.156-1.653-.492-.288-.435-.072-1.165.4-2.278C5.546,48.57,10.616,36.465,15.52,24.758l.4-.965q2.786-6.656,5.575-13.311c.289-.688.59-1.387.881-2.062l.063-.148c.444-1.031.947-2.2,1.409-3.332A7.33,7.33,0,0,1,31.087.085C31.717.079,32.4.076,33.24.076l1.807,0,1.809,0V.069c.554,0,1.117.014,1.663.026h.03C39.1.11,39.664.124,40.22.124A21.181,21.181,0,0,0,42.343.031c.213-.021.41-.031.587-.031,1.462,0,2.139.65,2.5,2.4C48.938,19.507,52.79,37.98,57.551,60.532c.212,1,.279,1.762-.081,2.206A1.923,1.923,0,0,1,55.9,63.225ZM33.034,17.956h0q-.813,2.233-1.623,4.467l-.133.363-.13.357c-1.887,5.191-3.838,10.559-5.775,15.827-.25.685-.362,1.17-.149,1.474.169.242.537.355,1.154.355H26.5c1.38-.031,2.838-.045,4.59-.045,1.371,0,2.756.009,4.095.018l1.458.009h.126c.466,0,.868-.021,1.069-.27a1.276,1.276,0,0,0,.077-1.063c-1.141-5.345-2.249-10.775-3.227-15.565q-.593-2.9-1.188-5.806l-.471-.121Z" transform="translate(412.035 434.465)" fill="#2a296b" stroke="rgba(0,0,0,0)" stroke-miterlimit="10" stroke-width="1"/>
      <path id="Path_204" data-name="Path 204" d="M296.3,449.881c5.405-13.7,10.629-26.828,15.736-40,.732-1.881,1.611-2.673,3.728-2.59,4.66.181,9.331.055,14.006.055.434.982-.206,1.631-.491,2.313q-12.234,29.3-24.477,58.6c-.635,1.53-1.363,2.283-3.171,2.221-4.208-.149-8.427-.112-12.636-.009-1.728.041-2.505-.392-2.973-2.242-4.026-15.913-8.268-31.77-12.267-47.69a9.305,9.305,0,0,0-5.892-6.938,85.425,85.425,0,0,0-12.51-4.022c-.645-.156-1.592-.05-1.544-1.145.053-1.241,1.019-1.078,1.815-1.078,8.791,0,17.583-.064,26.374.05,4.118.053,6.651,2.595,7.477,7.011q3.07,16.412,6.144,32.823C295.752,447.95,295.977,448.645,296.3,449.881Z" transform="translate(14.648 27.192)" fill="#2a296b"/>
      <path id="Path_205" data-name="Path 205" d="M312.636,471.924A53.969,53.969,0,0,1,298.8,469.7c-2.058-.578-2.8-1.432-2.207-3.609a90.068,90.068,0,0,0,2.037-9.363c.294-1.812.929-1.789,2.324-1.117a31.328,31.328,0,0,0,15.715,3.072c.367-.021.734-.014,1.1-.048,4.061-.383,7.222-2.386,7.672-5.146.615-3.779-2.292-5.274-4.887-6.812-2.909-1.723-5.981-3.175-8.853-4.949-13.905-8.578-9.588-23.809-.041-29.839,9.376-5.924,19.519-6.057,29.91-3.6,4.141.982,4.123,1.115,3.3,5.155-.53,2.592-1.2,5.162-1.627,7.771-.264,1.588-.883,1.627-2.186,1.087a28.746,28.746,0,0,0-13.421-2.152,14.818,14.818,0,0,0-3.487.654c-2.072.691-3.889,1.824-4.217,4.219-.305,2.228,1.154,3.613,2.84,4.627,3.132,1.883,6.392,3.554,9.528,5.43,4.478,2.68,8.463,5.864,9.84,11.253,2.251,8.817-2.28,17.8-11.131,22.173C326.2,470.889,320.6,472.011,312.636,471.924Z" transform="translate(69.765 26.552)" fill="#2a296b"/>
      <path id="Path_206" data-name="Path 206" d="M292.356,470.427c-1.923,0-3.857-.135-5.765.034-2.168.193-2.4-.727-2.012-2.544,3.937-18.191,7.8-36.4,11.746-54.586,1.3-6,1.379-5.986,7.488-5.988,2.657,0,5.318.115,7.965-.046,1.92-.117,2.115.638,1.767,2.241q-5.63,25.944-11.189,51.9c-.518,2.409-1.028,4.82-1.491,7.238-.239,1.253-.773,1.874-2.193,1.789-2.1-.128-4.21-.034-6.316-.034Z" transform="translate(54.273 27.195)" fill="#2a296b"/>
    </g>
  </g>
</svg>
